HIERARCHY
ROOT Hips
{
  OFFSET 57.8838 95.319 338.509
  CHANNELS 6 Xposition Yposition Zposition Zrotation Xrotation Yrotation
  JOINT LeftUpLeg
  {
    OFFSET 8.64259 1.95398 -2.38835
    CHANNELS 3 Zrotation Xrotation Yrotation
    JOINT LeftLeg
    {
      OFFSET 43.7702 0 0
      CHANNELS 3 Zrotation Xrotation Yrotation
      JOINT LeftFoot
      {
        OFFSET 40.6238 0 0
        CHANNELS 3 Zrotation Xrotation Yrotation
        JOINT LeftToeBase
        {
          OFFSET 12.7242 0 0
          CHANNELS 3 Zrotation Xrotation Yrotation
          End Site
          {
            OFFSET 0 0 0
          }
        }
      }
    }
  }
  JOINT RightUpLeg
  {
    OFFSET -8.2249 1.95398 -2.59336
    CHANNELS 3 Zrotation Xrotation Yrotation
    JOINT RightLeg
    {
      OFFSET 43.5653 0 0
      CHANNELS 3 Zrotation Xrotation Yrotation
      JOINT RightFoot
      {
        OFFSET 40.6238 0 0
        CHANNELS 3 Zrotation Xrotation Yrotation
        JOINT RightToeBase
        {
          OFFSET 12.7242 0 0
          CHANNELS 3 Zrotation Xrotation Yrotation
          End Site
          {
            OFFSET 0 0 0
          }
        }
      }
    }
  }
  JOINT Spine
  {
    OFFSET 0.165834 0.87714 6.61349
    CHANNELS 3 Zrotation Xrotation Yrotation
    JOINT Spine1
    {
      OFFSET 7.38963 1.71661e-005 0
      CHANNELS 3 Zrotation Xrotation Yrotation
      JOINT Spine2
      {
        OFFSET 11.9445 1.14441e-005 0
        CHANNELS 3 Zrotation Xrotation Yrotation
        JOINT Spine3
        {
          OFFSET 14.7254 4.19617e-005 0
          CHANNELS 3 Zrotation Xrotation Yrotation
          JOINT Spine4
          {
            OFFSET 10.9679 0 0
            CHANNELS 3 Zrotation Xrotation Yrotation
            JOINT RightShoulder
            {
              OFFSET 2.46616 -1.6653 3.69651
              CHANNELS 3 Zrotation Xrotation Yrotation
              JOINT RightArm
              {
                OFFSET 13.0012 0 0
                CHANNELS 3 Zrotation Xrotation Yrotation
                JOINT RightForeArm
                {
                  OFFSET 28.7848 1.62311e-005 0
                  CHANNELS 3 Zrotation Xrotation Yrotation
                  JOINT RightHand
                  {
                    OFFSET 26.5688 1.62095e-005 0
                    CHANNELS 3 Zrotation Xrotation Yrotation
                    End Site
                    {
                      OFFSET 0 0 0
                    }
                  }
                }
              }
            }
            JOINT LeftShoulder
            {
              OFFSET 2.38034 -1.29275 -3.7523
              CHANNELS 3 Zrotation Xrotation Yrotation
              JOINT LeftArm
              {
                OFFSET 16.3182 6.07031e-005 0
                CHANNELS 3 Zrotation Xrotation Yrotation
                JOINT LeftForeArm
                {
                  OFFSET 27.0901 0 0
                  CHANNELS 3 Zrotation Xrotation Yrotation
                  JOINT LeftHand
                  {
                    OFFSET 24.5451 1.51738e-005 0
                    CHANNELS 3 Zrotation Xrotation Yrotation
                    End Site
                    {
                      OFFSET 0 0 0
                    }
                  }
                }
              }
            }
            JOINT Neck
            {
              OFFSET 5.0226 -0.0266342 0
              CHANNELS 3 Zrotation Xrotation Yrotation
              JOINT Head
              {
                OFFSET 6.69364 2.86102e-005 0
                CHANNELS 3 Zrotation Xrotation Yrotation
                End Site
                {
                  OFFSET 0 0 0
                }
              }
            }
          }
        }
      }
    }
  }
}
MOTION
Frames:	17
Frame Time:	0.0416667
-312.378 58.9752 341.283 -105.416 -56.9549 -113.869 141.219 55.9207 111.684 -114.412 27.1151 -16.688 77.08 32.1763 1.64691 25.7602 -9.3267 60.7587 -166.592 56.5735 56.6017 -115.726 -4.15139 5.12647 76.7897 19.6477 16.188 39.5272 -12.8 7.13293 -2.64714 7.89292 -88.58 11.153 -4.60937 3.27559 -0.51444 -4.46083 3.47535 -23.1034 -5.38017 1.73645 -3.09075 -5.38017 1.73645 66.0944 -35.5404 -145.184 45.6163 32.5327 47.5244 155.626 -17.0485 -59.9311 1.72255 -1.76693 -78.328 -107.477 -52.826 54.6565 -5.60915 -37.8097 64.3315 52.9984 27.5448 -68.6807 27.1933 -6.71816 -29.1236 -72.0643 43.3642 17.2934 138.349 57.5506 -8.22459 
-313.198 58.5974 342.252 -105.65 -56.901 -114.406 139.315 56.934 113.934 -112.023 28.2343 -17.4211 74.7085 31.1729 1.03972 28.4065 -6.61033 65.0632 -166.076 55.588 55.5417 -116.604 -5.96409 5.22969 76.918 20.285 16.0715 40.4222 -13.8854 6.90607 -2.63289 7.87468 -88.5549 11.1894 -4.56874 3.32407 -0.478244 -4.41808 3.52198 -23.0653 -5.35598 1.79504 -3.05269 -5.35597 1.79504 65.5831 -36.2309 -145.44 44.317 32.6899 48.4531 155.02 -17.5252 -59.7375 1.2402 -1.39323 -77.5835 -107.686 -53.0064 54.4507 -5.72692 -37.4935 61.6597 54.217 27.6886 -69.6134 27.7637 -6.97187 -29.5493 -72.3817 42.8335 17.149 138.214 57.4746 -7.83149 
-315.488 57.4045 344.971 -106.31 -56.727 -115.945 134.658 59.1973 119.217 -104.898 30.5642 -19.2208 68.3433 27.6291 -0.7121 34.8978 2.93636 74.0093 -165.199 52.408 53.1734 -118.85 -12.1089 5.67592 78.2852 20.3685 14.667 43.3737 -17.6518 5.63336 -2.59312 7.82696 -88.4866 11.2847 -4.45595 3.45541 -0.383721 -4.29966 3.64818 -22.9656 -5.28788 1.95456 -2.95296 -5.28788 1.95455 64.1705 -38.1117 -146.146 40.6095 33.0647 51.0594 153.422 -18.7775 -59.1922 0.0145174 -0.478591 -75.6487 -108.262 -53.5184 53.899 -6.14531 -36.6789 54.2271 56.7024 28.2887 -71.4319 28.7302 -7.58977 -30.8737 -73.2345 41.2755 16.8207 137.81 57.1088 -6.71094 
-318.691 55.4144 348.842 -107.233 -56.4331 -118.164 130.333 61.1256 123.689 -94.2418 32.3547 -20.6922 60.3547 21.3866 -3.51149 41.6926 15.499 80.5694 -165.035 46.8613 50.8953 -121.357 -22.9639 6.70589 81.6626 16.9646 10.6757 47.3147 -23.3688 2.64991 -2.53845 7.76769 -88.4002 11.4026 -4.30463 3.61992 -0.266807 -4.14125 3.8058 -22.8418 -5.19302 2.15739 -2.82912 -5.19303 2.15738 62.2559 -40.5934 -147.106 35.2553 33.4239 54.7228 151.477 -20.3038 -58.3873 -1.41015 0.50753 -73.2575 -109.041 -54.265 53.1859 -6.88435 -35.759 44.2164 58.2011 29.7433 -72.3984 29.0096 -8.19983 -32.6971 -74.3697 38.9246 16.5629 137.175 56.2955 -5.08458 
-322.332 52.8167 353.379 -108.271 -56.0236 -120.773 128.971 61.9205 124.192 -81.6232 33.0498 -20.3795 52.3964 13.183 -7.4198 47.686 27.6709 82.8224 -166.014 38.8644 49.3424 -122.875 -36.5545 8.4788 85.6509 9.72481 5.09369 49.8667 -28.4111 -1.66599 -2.48464 7.71443 -88.3234 11.508 -4.15949 3.76501 -0.162322 -3.9899 3.94433 -22.7307 -5.09819 2.33981 -2.71809 -5.0982 2.3398 60.2654 -43.0838 -148.116 28.9696 33.6094 58.8801 149.716 -21.6917 -57.3693 -2.68701 1.31198 -70.8981 -109.865 -55.182 52.5043 -8.0535 -35.0986 33.7789 57.9154 32.1535 -71.8362 28.6061 -8.51995 -34.1582 -75.5726 35.9579 16.6754 136.366 54.9533 -3.14941 
-325.896 50.1576 357.958 -109.291 -55.5161 -123.51 131.472 61.0384 119.897 -68.1735 33.1092 -17.5853 44.8954 4.24631 -12.4181 52.5884 36.068 81.76 -168.029 29.3757 48.5733 -122.473 -48.487 10.8054 88.7992 1.13314 0.252693 50.5421 -31.3429 -5.78036 -2.46015 7.68864 -88.284 11.559 -4.0913 3.83983 -0.111685 -3.91848 4.01604 -22.6769 -5.05564 2.43186 -2.66426 -5.05562 2.43187 58.751 -44.9014 -148.903 22.6013 33.603 62.9352 148.43 -22.677 -56.2199 -3.68186 1.87778 -68.8403 -110.522 -56.2273 52.1124 -9.93286 -34.8747 24.4779 56.3057 35.0896 -69.7978 28.1263 -8.45414 -34.4026 -76.5848 32.5055 17.5554 135.496 53.0254 -1.12426 
-328.766 48.2716 361.726 -110.189 -54.9404 -126.158 136.682 57.8286 112.449 -53.8849 33.1527 -12.8527 37.2978 -4.26045 -18.4162 55.6486 40.2295 80.1007 -170.569 21.0211 48.0582 -120.726 -55.7444 12.5791 90.8914 -5.72325 -2.82663 50.4053 -32.5617 -8.42474 -2.51246 7.7179 -88.3022 11.5026 -4.20521 3.81165 -0.16772 -4.03351 3.99291 -22.7368 -5.15578 2.37053 -2.72416 -5.15578 2.37052 58.3784 -45.2589 -149.153 17.2398 33.5572 66.2127 147.59 -23.2002 -55.1357 -4.40772 2.25424 -67.2016 -110.717 -57.396 52.3829 -12.6447 -35.0396 17.1282 53.6277 38.0927 -66.1655 28.1327 -7.92289 -32.57 -77.0254 28.6557 19.7397 134.726 50.3873 0.726015 
-330.259 48.0357 363.738 -110.893 -54.3285 -128.555 142.544 51.7002 104.395 -37.6507 33.4323 -7.52263 28.5567 -11.5483 -25.3 56.4749 40.664 78.7992 -172.894 17.0232 47.1904 -119.953 -57.6348 11.8758 91.8851 -8.82154 -4.49104 50.1275 -32.6368 -9.30175 -2.70337 7.8323 -88.374 11.2804 -4.6231 3.69573 -0.388125 -4.45608 3.89558 -22.9721 -5.51946 2.13341 -2.9594 -5.51946 2.13342 59.6784 -43.3618 -148.722 14.2539 33.8014 67.9051 146.894 -23.4029 -54.4513 -4.94025 2.51481 -66.0182 -110.076 -58.748 53.8037 -16.2266 -35.6069 11.5318 47.9204 41.3994 -58.6086 28.7932 -6.45475 -26.9204 -76.3143 24.5871 23.8567 134.21 46.768 2.06814 
-329.716 50.1337 363.138 -111.36 -53.7067 -130.591 147.788 41.4189 97.1323 -16.2898 33.7947 -2.6513 16.7614 -17.3329 -33.566 55.2394 37.5495 77.239 -174.168 19.3915 46.0439 -121.192 -53.1078 8.10912 92.0873 -7.27995 -4.75289 49.8291 -31.5824 -8.17149 -3.08991 8.05644 -88.4626 10.8456 -5.44253 3.56561 -0.81949 -5.28045 3.8019 -23.4337 -6.26169 1.76079 -3.42102 -6.26167 1.76078 62.8047 -38.5406 -147.813 15.2437 34.7862 66.9828 145.938 -23.4977 -54.5919 -5.35502 2.72077 -65.3269 -108.195 -60.4396 56.9156 -20.0445 -36.6544 9.10695 32.3272 43.0831 -40.5558 27.3875 -2.95905 -14.6091 -73.6495 20.8277 30.4898 133.978 41.7153 2.53822 
-326.515 54.9679 359.2 -111.552 -53.0898 -132.181 151.484 31.1958 91.4859 2.49521 33.7428 0.422028 5.86732 -20.9159 -39.7271 52.1148 30.361 73.6869 -174.3 28.1355 46.2026 -121.352 -36.2645 3.06751 92.9968 -0.856102 -1.05249 48.6668 -27.8442 -3.96416 -3.69548 8.40252 -88.5075 10.175 -6.68308 3.52804 -1.48429 -6.52142 3.81945 -24.1495 -7.43296 1.34741 -4.13689 -7.43296 1.34741 67.6867 -30.3568 -146.755 22.0279 36.8169 61.914 144.401 -23.5161 -56.0209 -5.69269 2.912 -65.2545 -104.111 -61.5092 62.5473 -24.8482 -38.1926 13.9724 11.6794 41.0062 -10.5567 12.2849 -0.521935 -10.1637 -68.0328 18.6855 39.939 133.856 34.4189 1.71897 
-320.101 62.205 351.507 -111.421 -52.4786 -133.238 157.094 40.2647 86.9449 -18.5313 33.3665 -3.41457 18.1909 -22.4921 -28.3196 45.9985 17.9036 64.9201 -175.644 38.048 50.4695 -112.919 -12.7729 -0.559776 92.5517 -1.21518 3.95115 43.7466 -19.8749 -0.415415 -4.45875 8.86046 -88.4533 9.28851 -8.19853 3.66133 -2.36266 -8.02955 4.0202 -25.1012 -8.9172 1.01069 -5.08856 -8.9172 1.01069 74.2904 -18.9657 -145.467 36.1646 39.1866 50.6227 142.38 -22.9269 -59.1148 -5.90087 3.09111 -66.2364 -97.2163 -58.232 70.5647 -35.8958 -39.5182 26.3958 7.28035 23.8715 -2.7603 3.01657 -0.482862 -12.0821 -58.8854 19.7357 50.7454 132.682 24.625 -0.117868 
-314.131 67.7886 343.909 -110.892 -51.8578 -133.664 167.706 54.5563 79.5101 -61.5111 33.2324 -10.045 40.5388 -11.3362 -10.4892 37.7228 5.57258 49.7521 -175.405 43.9362 51.8514 -102.481 -10.371 -1.48339 84.7156 -3.98218 -0.0687124 42.1664 -17.1192 2.10661 -5.22079 9.37855 -88.2898 8.28473 -9.66778 3.95698 -3.35734 -9.48434 4.38148 -26.1797 -10.4057 0.839513 -6.16704 -10.4056 0.839525 82.2854 -5.65747 -143.205 56.7464 39.0312 32.6257 140.887 -20.4695 -64.0252 -5.67625 3.17749 -69.8018 -91.5928 -55.3015 77.5661 -41.3278 -39.349 22.8498 8.04933 24.2077 -3.21883 3.10943 -0.421398 -11.2727 -48.6887 21.6828 56.7977 126.31 20.9151 1.35939 
-307.489 72.9364 335.747 -109.782 -51.1976 -133.343 -171.605 49.4179 61.6135 -99.6881 24.5593 -7.02699 51.9825 1.56829 1.39976 36.5226 3.56343 26.2729 -174.426 46.8803 53.195 -90.196 -14.5716 -2.06532 75.8429 -5.9377 -3.69974 37.1914 -10.998 0.880209 -5.7167 9.74872 -88.1567 7.56539 -10.615 4.1703 -4.07001 -10.4213 4.63732 -26.9539 -11.3718 0.748641 -6.9412 -11.3718 0.748635 89.6297 6.03015 -139.554 74.7914 34.4986 15.2032 142.207 -14.1441 -70.6364 -4.34617 1.74361 -81.6674 -86.9144 -53.7092 83.9349 -39.9512 -34.628 6.18975 9.63963 25.565 -9.89582 3.35148 -0.508848 -12.7625 -37.7454 23.0245 57.5879 117.101 19.1464 3.35411 
-300.133 76.9246 327.591 -108.853 -50.4512 -131.873 -161.652 25.9953 57.289 -110.158 6.06505 -1.4798 53.6464 -0.472597 1.07467 45.4663 7.58837 8.25304 -175.037 47.9448 57.0933 -76.0249 -11.3309 -2.6469 69.5466 -3.96563 0.540174 31.4119 -3.35645 4.20173 -5.93526 9.89299 -88.1116 7.28526 -11.0383 4.2401 -4.34685 -10.8411 4.72626 -27.2602 -11.7957 0.683067 -7.24759 -11.7958 0.683053 94.3112 13.3745 -135.363 85.2291 27.8177 2.20076 -157.601 -2.59697 -78.6742 39.4082 -31.203 -96.2084 -82.0605 -52.3755 90.8681 -34.8057 -31.6337 -7.90355 14.6001 18.0883 -31.5005 4.13048 -0.714143 -15.2934 -27.338 22.8092 56.046 108.955 13.1407 1.6467 
-291.204 84.0202 317.933 -112.45 -48.5604 -126.65 -166.734 6.43873 69.8086 -83.7421 6.69944 -0.592835 59.469 5.62688 8.89189 53.8941 12.2597 10.0291 178.587 37.4733 67.6985 -46.8536 -7.56888 -2.65608 57.4165 15.5823 19.0244 13.3967 21.1782 -2.01354 -5.65493 10.3538 -88.3178 6.3231 -10.5853 3.67394 -5.31085 -10.4134 4.14042 -28.196 -11.1944 0.284125 -8.18331 -11.1945 0.2841 94.9256 13.2572 -131.526 88.1567 21.1785 -7.27287 -34.9963 -33.7558 -71.5104 32.1043 -1.12499 21.4638 -78.2794 -48.0391 96.4001 -27.9056 -27.5758 -6.55197 15.0952 6.98569 -63.201 6.60631 -1.49933 -22.0001 -24.0196 21.2914 50.1398 100.984 12.5606 0.225497 
-282.407 88.195 308.503 -116.031 -45.0718 -118.708 -177.19 -2.68902 77.028 -53.7058 16.268 1.16587 64.61 8.80819 8.34237 52.9363 12.2249 12.5324 176.79 29.5487 78.1246 -47.0415 -27.5549 -1.51261 52.469 16.562 16.008 23.2768 8.32779 -5.35621 -4.47294 11.493 -89.1881 3.93209 -8.60976 1.61378 -7.71164 -8.53033 1.99379 -30.4767 -8.69366 -1.06859 -10.4641 -8.69363 -1.06857 95.7138 12.4444 -124.755 87.2697 17.9362 -14.1312 5.66951 -27.5923 0.00342617 -7.68083 -0.322281 -0.0330663 -76.3984 -46.2501 99.3512 -26.2598 -22.6654 -3.86216 11.9443 3.13827 -75.7936 5.42888 -1.25976 -21.3927 -17.4249 18.7751 43.1348 77.3205 15.5953 2.14034 
-274.197 85.6122 299.548 -106.529 -42.9388 -104.911 -176.834 7.65416 80.0977 -50.4072 19.1506 1.07636 63.237 9.46784 14.0541 54.8636 11.7646 5.60441 176.469 36.2964 84.5844 -91.1436 -19.2734 -3.02522 60.9358 5.40931 7.39585 29.8058 -1.27845 -5.14303 -2.52851 11.8892 -90.381 3.06926 -5.20233 -0.783203 -8.59133 -5.2317 -0.552849 -31.1974 -4.72609 -2.31389 -11.1847 -4.7261 -2.3139 97.4593 9.35091 -108.897 81.8409 11.6902 -24.1069 -0.279347 -20.8626 -13.7109 -12.7082 -0.0935405 -4.59063 -76.396 -53.9128 99.2052 -22.489 -20.3587 -9.7976 9.4462 10.6448 -51.8294 9.65248 -1.5654 -18.37 1.38463 19.1759 37.3231 39.8647 12.117 -1.45966 
